HIERARCHY
ROOT Hips
{
  OFFSET 0 0 0
  CHANNELS 6 Xposition Yposition Zposition Zrotation Yrotation Xrotation
  JOINT LeftThigh
  {
    OFFSET 8.409438 0 -5.917753
    CHANNELS 3 Zrotation Yrotation Xrotation
    JOINT LeftLeg
    {
      OFFSET 0 0 -42.358652
      CHANNELS 3 Zrotation Yrotation Xrotation
      JOINT LeftFoot
      {
        OFFSET 0 0 -39.357303
        CHANNELS 3 Zrotation Yrotation Xrotation
      }
    }
  }
  JOINT RightThigh
  {
    OFFSET -8.409438 0 -5.917753
    CHANNELS 3 Zrotation Yrotation Xrotation
    JOINT RightLeg
    {
      OFFSET 0 0 -42.358652
      CHANNELS 3 Zrotation Yrotation Xrotation
      JOINT RightFoot
      {
        OFFSET 0 0 -39.357303
        CHANNELS 3 Zrotation Yrotation Xrotation
      }
    }
  }
  JOINT SpineLow
  {
    OFFSET 0 0 4.719101
    CHANNELS 3 Zrotation Yrotation Xrotation
    JOINT SpineMid
    {
      OFFSET 0 0 12.899191
      CHANNELS 3 Zrotation Yrotation Xrotation
      JOINT Chest
      {
        OFFSET 0 0 12.899191
        CHANNELS 3 Zrotation Yrotation Xrotation
        JOINT LeftShoulder
        {
          OFFSET 7.550562 1.41573 9.438202
          CHANNELS 3 Zrotation Yrotation Xrotation
          JOINT LeftArm
          {
            OFFSET 9.155056 0 4.247191
            CHANNELS 3 Zrotation Yrotation Xrotation
            JOINT LeftForearm
            {
              OFFSET 0 0 25.771955
              CHANNELS 3 Zrotation Yrotation Xrotation
              JOINT LeftHand
              {
                OFFSET 0 0 25.197169
                CHANNELS 3 Zrotation Yrotation Xrotation
              }
            }
          }
        }
        JOINT RightShoulder
        {
          OFFSET -7.550562 1.41573 9.438202
          CHANNELS 3 Zrotation Yrotation Xrotation
          JOINT RightArm
          {
            OFFSET -9.155056 0 4.247191
            CHANNELS 3 Zrotation Yrotation Xrotation
            JOINT RightForearm
            {
              OFFSET 0 0 -25.771955
              CHANNELS 3 Zrotation Yrotation Xrotation
              JOINT RightHand
              {
                OFFSET 0 0 -25.197169
                CHANNELS 3 Zrotation Yrotation Xrotation
              }
            }
          }
        }
        JOINT Neck
        {
          OFFSET 0 0 15.101124
          CHANNELS 3 Zrotation Yrotation Xrotation
          JOINT Head
          {
            OFFSET 0 0 11.325843
            CHANNELS 3 Zrotation Yrotation Xrotation
            End Site
            {
              OFFSET 0 0 14.157303
            }
          }
        }
      }
    }
  }
}
MOTION
Frames: 11
Frame Time: 0.0
0.0  101.685394  0.0  4.656189  -0.487692  -114.259267  34.322193  -17.636839  -88.717532  38.265821  49.317473  115.420443  -3.700336  -4.651154  1.357735  -13.486883  6.445135  -9.76354  11.557779  3.790351  30.841688  31.990866  -1.009338  8.463975  -4.949845  1.465237  3.026004  -13.341694  4.596524  7.94367  -13.341695  4.596524  7.94367  10.041637  30.269544  21.750334  166.408539  70.912363  -151.626303  -72.038061  -34.427862  107.847321  83.853256  19.846539  -1.795707  39.679662  -3.364097  35.274832  95.636114  69.790983  13.96425  -52.840919  32.026218  -99.772857  74.654991  -40.488772  87.111579  11.424807  1.673988  0.398204  8.566909  1.26346  0.267435  
0.0  101.685394  0.0  4.293241  -0.479435  -114.024401  34.168081  -19.268884  -87.489796  40.523813  49.725437  117.626138  -2.728215  -4.092027  0.922844  -13.423114  6.118587  -10.008366  11.33658  3.580779  31.045999  32.038148  -0.965545  8.593262  -5.048606  1.373062  2.958069  -13.625943  4.343832  7.76914  -13.625942  4.343832  7.76914  10.439055  30.292085  21.368743  167.316149  71.810222  -150.496733  -70.358331  -34.607673  106.554322  83.414888  19.203247  -1.679999  39.906185  -2.889647  34.511786  96.393853  69.72512  15.331899  -50.582553  30.070331  -98.911993  73.728507  -40.435127  85.835062  11.697403  1.570271  0.238088  8.771893  1.182775  0.148552  
0.0  101.685394  0.0  4.005831  -0.495153  -113.785293  33.976447  -20.569446  -85.829038  41.704222  49.926796  119.533715  -2.165939  -3.3339  0.42366  -13.396955  5.844781  -10.288877  11.381705  3.247017  31.26175  32.062733  -0.882042  8.796025  -5.053433  1.330129  2.968942  -13.642695  4.229981  7.806853  -13.642695  4.229981  7.806853  10.007936  29.813941  20.356688  167.328938  72.156329  -150.071063  -68.899651  -34.788051  105.483325  82.921486  18.567845  -1.569119  39.623629  -2.524447  33.245953  97.274043  69.330657  16.752462  -46.624557  26.51258  -98.37922  73.301924  -40.1091  86.509042  11.701246  1.290446  -0.20465  8.775997  0.964335  -0.178275  
0.0  101.685394  0.0  3.824731  -0.500265  -113.644996  33.522404  -21.570134  -83.642387  41.586012  49.798445  120.887102  -2.238621  -2.379721  -0.171098  -13.443741  5.705927  -10.462625  11.545735  2.939006  31.347244  31.884778  -0.914558  8.870345  -5.027701  1.317495  3.028633  -13.569523  4.204817  7.97373  -13.569524  4.204817  7.97373  9.247745  29.224215  19.01215  165.859065  72.344169  -151.132752  -67.925953  -34.846984  104.608509  82.488124  18.041518  -1.422299  39.275685  -2.149305  31.865244  98.457645  68.824922  18.530373  -44.456685  24.209447  -98.181495  72.576854  -39.302797  85.898345  11.552062  0.992866  -0.82238  8.665184  0.729413  -0.635811  
0.0  101.685394  0.0  3.747559  -0.47737  -113.549191  32.769721  -22.400145  -81.088412  40.609056  49.415989  121.832548  -2.758534  -1.280802  -0.803119  -13.505646  5.711279  -10.5178  11.776669  2.612215  31.306061  31.953135  -1.014955  8.965537  -4.983523  1.34814  3.071408  -13.442595  4.291472  8.08742  -13.442594  4.291472  8.08742  8.387015  28.492973  17.834365  163.506195  72.533581  -153.181832  -67.328229  -34.754888  103.808374  82.123614  17.548351  -1.371525  38.736169  -2.106469  30.515896  104.875528  66.545797  23.615121  -44.68498  23.948397  -97.497073  71.708549  -38.464858  85.812797  11.359639  0.626088  -1.395897  8.521126  0.4438  -1.058986  
0.0  101.685394  0.0  3.700023  -0.413837  -113.301279  31.64483  -23.141709  -78.400249  39.165609  48.820793  122.440933  -3.379995  -0.062533  -1.416065  -13.543929  5.743489  -10.583194  11.829014  2.421985  31.060256  31.831325  -1.075869  8.961337  -4.77529  1.428112  3.084526  -12.864121  4.48653  8.123208  -12.864121  4.48653  8.123208  6.611462  27.322124  16.950591  160.848062  72.727733  -155.56276  -66.855659  -34.55483  103.084087  81.766863  16.963166  -1.682414  37.345773  -2.632981  29.275968  106.674455  65.615156  26.18001  -43.679864  22.718564  -97.701163  70.578387  -37.598594  86.408299  10.593363  4.91E-4  -1.939755  7.945119  -0.033273  -1.455343  
0.0  101.685394  0.0  3.620175  -0.338776  -112.93826  30.193741  -23.945225  -75.571372  37.422286  48.049922  122.731889  -4.091262  1.24833  -2.037215  -13.501711  5.701818  -10.626808  11.771702  2.26081  30.72651  31.742537  -1.062177  8.954597  -4.848388  1.430328  3.058349  -13.065592  4.496164  8.046032  -13.065592  4.496164  8.046032  6.331916  27.00815  16.088176  158.616747  72.725136  -157.654938  -66.399185  -34.272891  102.598908  81.523912  16.258003  -2.408879  37.436643  -2.478186  28.509046  112.313865  62.724947  30.286275  -45.203389  24.061515  -97.174946  69.38201  -36.840726  87.497406  10.652047  -0.150123  -2.545889  7.988571  -0.157033  -1.907485  
0.0  101.685394  0.0  3.455449  -0.241447  -112.380971  28.544993  -24.854332  -72.721775  35.614468  47.255295  122.825549  -4.731093  2.617372  -2.603189  -13.422374  5.516759  -10.790973  11.519456  2.297729  30.304766  31.726367  -1.065288  8.952068  -4.944487  1.39675  2.959103  -13.338914  4.396526  7.774885  -13.338915  4.396526  7.774886  6.305274  26.928808  15.673233  156.422943  72.435266  -159.666576  -66.047166  -34.093136  102.499786  81.439915  15.446474  -3.504127  37.510652  -2.303835  28.286158  113.945368  61.405596  32.327971  -45.340296  24.410671  -97.558593  68.26701  -36.338145  88.753293  10.868314  -0.220453  -2.875367  8.150404  -0.21657  -2.153408  
0.0  101.685394  0.0  3.20562  -0.044788  -111.729799  26.629773  -25.814233  -69.716622  33.696487  46.428673  122.696854  -5.347887  4.022395  -3.084803  -13.623344  5.196464  -11.070266  11.41407  2.380428  29.947008  31.779296  -1.045532  8.929744  -5.048383  1.350288  2.842679  -13.6357  4.258446  7.459309  -13.6357  4.258446  7.459309  6.055057  26.831125  15.327863  154.312285  71.756654  -161.665396  -65.942776  -34.09826  102.79959  81.556148  14.611038  -4.832405  37.331422  -2.149303  28.224838  118.649394  58.248104  34.730595  -46.155333  26.047636  -96.996201  59.927993  -26.439823  63.020426  10.948202  -0.276144  -3.224722  8.209951  -0.264997  -2.414508  
0.0  101.685394  0.0  2.918627  0.165091  -110.965077  24.512068  -26.733287  -66.468034  31.538527  45.491163  122.171051  -6.038482  5.42643  -3.467639  -13.715418  4.844041  -11.491746  11.212188  2.457529  29.667874  31.77095  -1.016525  8.889276  -5.166726  1.288804  2.699754  -13.974649  4.074519  7.074195  -13.974649  4.07452  7.074195  6.13229  26.898719  15.201891  151.598697  71.004365  -164.055013  -66.078716  -34.223676  103.351973  81.858462  13.748519  -6.317177  37.035688  -1.937316  28.488662  120.006519  56.810817  35.960978  -46.395154  26.867102  -97.404953  59.348358  -25.196841  63.981819  11.139748  -0.312944  -3.459223  8.353339  -0.297903  -2.589727  
0.0  101.685394  0.0  2.687294  0.694701  -110.138004  21.861618  -27.45779  -62.879328  29.319167  44.381696  121.325319  -6.867371  6.778921  -3.742173  -14.142916  4.621326  -12.108993  11.182865  2.446031  29.566864  31.73774  -1.059657  8.854591  -5.348006  1.237842  2.514836  -14.486684  3.914806  6.569355  -14.486685  3.914806  6.569354  6.039827  26.802839  15.091514  149.375743  69.792304  -166.160336  -66.43074  -34.411214  104.064896  82.243061  12.777343  -7.936536  36.826031  -1.74685  29.045346  123.688871  53.846746  37.108012  -47.96589  28.934072  -96.583598  59.070886  -23.33754  64.709952  11.355931  -0.308865  -3.603346  8.515459  -0.298752  -2.697868  
